<?xml version="1.0" standalone="no"?>
<!DOCTYPE svg PUBLIC "-//W3C//DTD SVG 20010904//EN"
 "http://www.w3.org/TR/2001/REC-SVG-20010904/DTD/svg10.dtd">
<svg version="1.0" xmlns="http://www.w3.org/2000/svg"
 width="512.000000pt" height="512.000000pt" viewBox="0 0 512.000000 512.000000"
 preserveAspectRatio="xMidYMid meet">

<g transform="translate(0.000000,512.000000) scale(0.100000,-0.100000)"
fill="#000000" stroke="none">
<path d="M3135 5095 c-22 -22 -25 -32 -25 -105 0 -73 3 -83 25 -105 13 -14 36
-25 50 -25 14 0 37 11 50 25 22 22 25 32 25 105 0 73 -3 83 -25 105 -13 14
-36 25 -50 25 -14 0 -37 -11 -50 -25z"/>
<path d="M2645 4965 c-14 -13 -25 -34 -25 -47 0 -34 72 -150 103 -168 24 -13
30 -13 54 0 15 9 34 27 42 41 14 24 12 31 -15 84 -56 112 -108 142 -159 90z"/>
<path d="M3638 4979 c-25 -14 -90 -135 -90 -167 0 -29 42 -72 71 -72 30 0 66
35 99 98 38 72 40 95 7 127 -25 26 -58 31 -87 14z"/>
<path d="M2297 4619 c-10 -6 -23 -22 -28 -37 -17 -44 6 -78 77 -118 76 -42
117 -43 147 -2 31 42 15 74 -63 126 -65 42 -100 50 -133 31z"/>
<path d="M3960 4600 c-62 -34 -100 -72 -100 -100 0 -30 43 -72 72 -72 40 0
157 69 169 98 18 50 -16 104 -66 104 -11 0 -45 -14 -75 -30z"/>
<path d="M2163 4125 c-29 -20 -37 -59 -19 -94 19 -37 32 -41 120 -41 90 0 126
22 126 74 0 57 -32 76 -126 76 -54 0 -86 -5 -101 -15z"/>
<path d="M4002 4117 c-31 -33 -29 -80 4 -106 22 -17 41 -21 106 -21 70 0 82 3
103 25 14 13 25 36 25 50 0 14 -11 37 -25 50 -22 23 -32 25 -108 25 -74 0 -86
-3 -105 -23z"/>
<path d="M1885 3816 c-41 -18 -83 -69 -90 -109 -4 -18 -5 -112 -3 -209 3 -160
5 -179 24 -204 43 -59 68 -69 174 -72 l99 -4 3 -178 c3 -162 5 -181 24 -206
31 -43 67 -65 112 -71 l42 -6 0 -88 c0 -49 -2 -89 -6 -89 -3 0 -31 17 -62 39
-131 88 -314 164 -495 203 -84 18 -133 22 -282 22 -201 0 -308 -17 -472 -75
-82 -29 -258 -114 -294 -142 -43 -33 -46 -94 -6 -122 33 -23 63 -18 135 24
413 241 944 224 1339 -42 159 -108 151 -96 145 -216 l-5 -102 -61 61 c-89 88
-168 144 -281 200 -522 258 -1148 80 -1455 -414 -61 -98 -104 -200 -138 -325
-22 -85 -25 -115 -25 -266 0 -151 3 -181 25 -266 113 -420 413 -720 827 -825
209 -54 470 -37 674 41 15 6 17 -1 17 -74 l0 -80 -52 -16 c-133 -39 -213 -50
-373 -50 -115 1 -184 6 -244 18 -628 133 -1059 684 -1028 1312 15 294 116 545
315 783 34 41 62 82 62 92 0 34 -43 73 -80 73 -29 0 -42 -9 -87 -59 -163 -180
-281 -415 -335 -667 -31 -146 -31 -418 0 -564 174 -805 960 -1298 1751 -1097
l95 24 26 -24 c14 -14 38 -30 53 -35 19 -8 330 -11 973 -11 l945 0 24 25 c32
31 32 69 0 100 l-24 25 -936 0 -935 0 0 155 0 155 1275 0 1275 0 0 -155 0
-155 -208 0 c-205 0 -209 0 -230 -23 -29 -31 -29 -77 2 -106 23 -22 27 -22
254 -19 253 3 256 4 306 72 20 26 21 40 20 224 0 108 -1 211 -2 227 -1 17 1
112 4 212 l5 182 159 3 c173 3 186 7 234 72 20 26 21 40 20 224 -2 233 -1 219
-1 467 0 107 0 211 0 230 0 19 0 123 0 230 0 248 -1 234 1 467 1 184 0 198
-20 224 -31 43 -67 65 -112 71 l-41 5 -3 179 c-3 161 -5 180 -24 205 -43 59
-68 69 -174 72 l-99 4 -3 178 c-3 195 -6 205 -72 254 -27 21 -37 21 -867 24
l-840 2 -24 -24 c-32 -32 -32 -70 0 -101 l24 -25 816 0 815 0 0 -155 0 -155
-1275 0 -1275 0 0 155 0 155 323 0 c311 0 324 1 345 20 14 14 22 33 22 55 0
22 -8 41 -22 55 -21 19 -33 20 -357 20 -257 -1 -343 -4 -366 -14z m2905 -751
l0 -155 -1275 0 -1275 0 0 155 0 155 1275 0 1275 0 0 -155z m180 -460 l0 -155
-1275 0 -1275 0 0 155 0 155 1275 0 1275 0 0 -155z m-3310 -235 c104 -26 264
-101 346 -163 75 -57 182 -169 230 -241 l36 -54 3 -214 c2 -117 3 -224 3 -238
1 -14 -1 -107 -4 -207 l-5 -182 -159 -3 c-173 -3 -186 -7 -234 -72 -20 -26
-21 -41 -21 -237 l0 -209 -70 -29 c-118 -49 -214 -66 -365 -65 -164 0 -268 23
-408 89 -114 54 -208 123 -295 214 -83 88 -119 141 -173 255 -66 140 -88 242
-88 411 0 169 22 271 88 411 54 114 90 167 174 255 146 156 326 253 539 294
105 20 290 13 403 -15z m3310 -225 l0 -155 -1275 0 -1275 0 0 155 0 155 1275
0 1275 0 0 -155z m0 -460 l0 -155 -1275 0 -1275 0 0 155 0 155 1275 0 1275 0
0 -155z m0 -460 l0 -155 -1275 0 -1275 0 0 155 0 155 1275 0 1275 0 0 -155z
m-420 -460 l0 -155 -1275 0 -1275 0 0 155 0 155 1275 0 1275 0 0 -155z"/>
<path d="M1345 2075 c-19 -18 -25 -35 -25 -68 0 -40 -2 -44 -37 -56 -86 -31
-170 -146 -180 -246 -11 -109 47 -199 166 -260 l51 -25 0 -191 0 -191 -32 7
c-18 4 -52 18 -75 31 -56 32 -96 31 -122 -2 -27 -34 -26 -54 1 -89 26 -33 125
-82 185 -91 l43 -6 0 -45 c0 -81 73 -121 125 -68 20 19 25 34 25 72 l0 48 50
18 c57 20 138 94 168 153 67 133 42 279 -64 372 -25 23 -69 50 -98 61 l-51 19
-3 146 c-1 80 1 146 6 146 4 0 32 -16 62 -35 65 -41 80 -43 116 -12 33 28 37
76 9 107 -17 19 -131 79 -177 94 -13 4 -18 16 -18 46 0 49 -35 90 -75 90 -14
0 -37 -11 -50 -25z m-25 -381 l0 -106 -22 14 c-56 37 -61 109 -12 168 14 16
28 30 30 30 2 0 4 -48 4 -106z m233 -396 c42 -56 15 -181 -47 -221 -14 -10
-28 -17 -31 -17 -3 0 -5 68 -5 151 l0 151 31 -19 c18 -10 41 -30 52 -45z"/>
</g>
</svg>
